<svg version="1.1" id="Layer_1" xmlns="http://www.w3.org/2000/svg" xmlns:xlink="http://www.w3.org/1999/xlink" x="0px" y="0px"
	 width="100%" viewBox="0 0 268 350" enable-background="new 0 0 268 350" xml:space="preserve">
<path fill="#9ECA2E" opacity="1.000000" stroke="none" 
	d="
M130.000000,0.999999 
	C130.444336,1.000000 130.888672,1.000000 131.948486,1.289356 
	C135.709320,1.385808 138.854660,1.192904 142.000000,1.000000 
	C142.000000,1.000000 142.500000,1.000000 142.876892,1.353095 
	C144.601120,2.133872 145.920547,2.755478 147.300842,2.953967 
	C152.006378,3.630628 156.839798,3.722985 161.427155,4.844909 
	C168.286728,6.522547 175.003586,8.807778 181.736496,10.973459 
	C191.687012,14.174104 192.267105,14.874587 192.287460,21.625038 
	C196.163071,24.111565 199.602997,26.450788 203.167801,28.580999 
	C214.045441,35.081139 224.268723,42.346935 231.497147,53.030296 
	C236.807693,60.879105 242.516861,68.541451 246.971436,76.863373 
	C251.679871,85.659515 254.597488,95.411980 259.277100,104.226578 
	C262.581848,110.451469 269.304016,114.863960 269.000000,123.000000 
	C269.000000,123.444336 269.000000,123.888672 268.717957,124.930496 
	C268.327728,127.339317 268.219513,129.150650 268.078247,131.401230 
	C268.057434,133.884308 268.069672,135.928146 268.061890,138.440277 
	C268.043518,143.943420 268.045166,148.978287 268.030579,154.426910 
	C268.047974,156.220901 268.081604,157.601151 268.082855,159.366211 
	C268.366943,161.167374 268.683472,162.583679 269.000000,164.000000 
	C269.000000,164.000000 269.000000,164.500000 268.631714,164.952698 
	C267.899139,168.996674 267.228210,172.588043 267.229248,176.179199 
	C267.232117,186.164688 264.115723,194.812363 257.394714,202.280670 
	C255.520035,204.363815 253.366516,207.086517 253.176666,209.651703 
	C251.889099,227.049362 248.438049,244.006805 244.024612,260.831940 
	C241.430130,270.722839 237.449326,279.969788 230.026398,287.020355 
	C219.397934,297.115692 208.145248,306.551849 197.216934,316.334076 
	C186.077103,326.305634 172.385040,331.967712 159.424026,338.860352 
	C151.659836,342.989319 143.810867,346.958801 136.000000,351.000000 
	C135.250000,351.000000 134.500000,351.000000 133.231293,350.675781 
	C119.072380,343.366089 105.252937,336.703278 91.864212,329.265167 
	C84.685806,325.277191 78.130890,320.113098 71.516472,315.182159 
	C66.894913,311.736847 62.523312,307.925049 58.264679,304.031281 
	C51.440102,297.791473 44.264870,291.808472 38.276180,284.826324 
	C34.382069,280.286224 29.069515,276.206238 28.463699,269.326782 
	C28.280750,267.249268 27.285994,265.256836 26.857727,263.185181 
	C23.875223,248.757874 21.189032,234.263062 17.857981,219.917572 
	C16.751534,215.152542 18.718796,209.836121 14.838555,205.550552 
	C7.741864,197.712585 2.571837,189.048721 2.837902,177.839890 
	C2.939094,173.576874 1.653528,169.280930 0.999999,165.000000 
	C1.000000,165.000000 1.000000,164.500000 1.283700,164.081421 
	C1.663195,162.805725 1.758990,161.948593 1.902337,160.707855 
	C1.953193,159.551636 1.956497,158.779053 1.973562,157.537582 
	C1.957851,149.380905 1.928379,141.693085 1.924905,133.619293 
	C1.923328,132.459488 1.895753,131.685669 1.899891,130.517761 
	C1.908276,129.070602 1.884947,128.017532 1.890151,126.628899 
	C1.612455,125.528885 1.306228,124.764442 1.000000,124.000000 
	C1.000000,124.000000 1.000000,123.500000 1.366432,123.050369 
	C1.043386,116.511353 3.318618,111.849854 8.198830,108.158333 
	C9.510874,107.165871 10.190636,105.238228 10.959871,103.643059 
	C17.489449,90.102585 23.088917,76.013748 30.746576,63.148403 
	C36.979950,52.675953 44.984077,42.973103 55.396652,35.990356 
	C62.066013,31.517834 69.193100,27.731541 75.943054,23.371441 
	C76.926003,22.736515 77.588470,20.460299 77.285973,19.213680 
	C76.610855,16.431351 77.122627,14.833697 79.931969,13.895995 
	C86.775635,11.611718 93.438393,8.601018 100.429108,6.989402 
	C108.801842,5.059185 117.449883,4.340832 125.952606,2.939386 
	C127.369789,2.705801 128.654221,1.666814 130.000000,0.999999 
M100.058174,133.394485 
	C89.735207,133.259995 79.412231,133.125504 68.169617,133.094818 
	C51.521080,132.752274 35.524490,128.697403 19.350939,123.602318 
	C19.206196,126.335182 19.110825,128.135864 19.056561,130.883255 
	C19.034559,132.879120 18.924887,134.878586 19.006344,136.870224 
	C19.296650,143.968063 19.651947,151.063263 20.179241,159.048523 
	C20.141275,160.207382 19.971891,161.379410 20.086611,162.522949 
	C20.847338,170.106079 19.705610,177.925110 24.324116,184.930649 
	C37.441013,204.826920 56.101288,216.976166 78.430756,223.839783 
	C93.556587,228.489136 109.111206,229.153046 124.784355,227.012848 
	C128.603287,226.491348 132.449631,225.564743 136.254807,225.690231 
	C141.991074,225.879410 147.712677,226.747818 153.421936,227.473724 
	C166.942993,229.192856 180.115189,227.232361 193.000687,223.373337 
	C212.206909,217.621338 228.317001,206.990982 241.023117,191.413834 
	C246.279602,184.969620 250.472488,178.134613 249.117401,169.112900 
	C248.636261,165.909698 249.525040,162.522812 249.543884,159.218384 
	C249.609970,147.635178 249.569504,136.051346 249.569504,123.898552 
	C225.056229,131.714539 199.232910,135.009964 172.106888,133.922348 
	C170.048096,134.141571 167.989288,134.360779 165.019226,134.660751 
	C162.237595,134.695389 159.455963,134.730011 155.970322,134.517365 
	C141.663132,134.462814 127.355934,134.408264 112.134171,134.338425 
	C109.685669,134.361206 107.237167,134.383987 104.680397,134.210068 
	C104.426987,134.109818 104.252083,134.187439 103.707809,134.453751 
	C103.707809,134.453751 103.268257,134.367157 102.456779,134.076569 
	C101.894707,133.961761 101.332634,133.846954 100.058174,133.394485 
z"/>
<path fill="#FFFFFF" opacity="1.000000" stroke="none" 
	d="
M136.468658,351.000000 
	C143.810867,346.958801 151.659836,342.989319 159.424026,338.860352 
	C172.385040,331.967712 186.077103,326.305634 197.216934,316.334076 
	C208.145248,306.551849 219.397934,297.115692 230.026398,287.020355 
	C237.449326,279.969788 241.430130,270.722839 244.024612,260.831940 
	C248.438049,244.006805 251.889099,227.049362 253.176666,209.651703 
	C253.366516,207.086517 255.520035,204.363815 257.394714,202.280670 
	C264.115723,194.812363 267.232117,186.164688 267.229248,176.179199 
	C267.228210,172.588043 267.899139,168.996674 268.631714,165.202698 
	C269.000000,226.914886 269.000000,288.829773 269.000000,351.000000 
	C224.979431,351.000000 180.958374,351.000000 136.468658,351.000000 
z"/>
<path fill="#FFFFFF" opacity="1.000000" stroke="none" 
	d="
M0.999999,165.468658 
	C1.653528,169.280930 2.939094,173.576874 2.837902,177.839890 
	C2.571837,189.048721 7.741864,197.712585 14.838555,205.550552 
	C18.718796,209.836121 16.751534,215.152542 17.857981,219.917572 
	C21.189032,234.263062 23.875223,248.757874 26.857727,263.185181 
	C27.285994,265.256836 28.280750,267.249268 28.463699,269.326782 
	C29.069515,276.206238 34.382069,280.286224 38.276180,284.826324 
	C44.264870,291.808472 51.440102,297.791473 58.264679,304.031281 
	C62.523312,307.925049 66.894913,311.736847 71.516472,315.182159 
	C78.130890,320.113098 84.685806,325.277191 91.864212,329.265167 
	C105.252937,336.703278 119.072380,343.366089 132.856293,350.675781 
	C89.060593,351.000000 45.121189,351.000000 1.000000,351.000000 
	C1.000000,289.312561 1.000000,227.624939 0.999999,165.468658 
z"/>
<path fill="#FEFEFE" opacity="1.000000" stroke="none" 
	d="
M269.000000,122.531342 
	C269.304016,114.863960 262.581848,110.451469 259.277100,104.226578 
	C254.597488,95.411980 251.679871,85.659515 246.971436,76.863373 
	C242.516861,68.541451 236.807693,60.879105 231.497147,53.030296 
	C224.268723,42.346935 214.045441,35.081139 203.167801,28.580999 
	C199.602997,26.450788 196.163071,24.111565 192.287460,21.625038 
	C192.267105,14.874587 191.687012,14.174104 181.736496,10.973459 
	C175.003586,8.807778 168.286728,6.522547 161.427155,4.844909 
	C156.839798,3.722985 152.006378,3.630628 147.300842,2.953967 
	C145.920547,2.755478 144.601120,2.133872 143.126892,1.353095 
	C184.925797,1.000000 226.851578,1.000000 269.000000,1.000000 
	C269.000000,41.353954 269.000000,81.708321 269.000000,122.531342 
z"/>
<path fill="#FFFFFF" opacity="1.000000" stroke="none" 
	d="
M129.531342,0.999999 
	C128.654221,1.666814 127.369789,2.705801 125.952606,2.939386 
	C117.449883,4.340832 108.801842,5.059185 100.429108,6.989402 
	C93.438393,8.601018 86.775635,11.611718 79.931969,13.895995 
	C77.122627,14.833697 76.610855,16.431351 77.285973,19.213680 
	C77.588470,20.460299 76.926003,22.736515 75.943054,23.371441 
	C69.193100,27.731541 62.066013,31.517834 55.396652,35.990356 
	C44.984077,42.973103 36.979950,52.675953 30.746576,63.148403 
	C23.088917,76.013748 17.489449,90.102585 10.959871,103.643059 
	C10.190636,105.238228 9.510874,107.165871 8.198830,108.158333 
	C3.318618,111.849854 1.043386,116.511353 1.366432,122.800369 
	C1.000000,82.404327 1.000000,41.808655 1.000000,1.000000 
	C43.687325,1.000000 86.375008,1.000000 129.531342,0.999999 
z"/>
<path fill="#66AB30" opacity="1.000000" stroke="none" 
	d="
M1.898907,134.005280 
	C1.928379,141.693085 1.957851,149.380905 1.734135,157.532043 
	C1.480947,157.995392 1.000000,158.000000 1.000000,158.000000 
	C1.000000,150.312424 1.000000,142.624832 1.224715,134.471893 
	C1.449430,134.006531 1.898907,134.005280 1.898907,134.005280 
z"/>
<path fill="#66AF2B" opacity="1.000000" stroke="none" 
	d="
M268.046844,154.013153 
	C268.045166,148.978287 268.043518,143.943420 268.290588,138.448914 
	C268.539337,137.989258 269.000000,138.000000 269.000000,138.000000 
	C269.000000,143.022095 269.000000,148.044189 268.761688,153.534378 
	C268.523376,154.002472 268.046844,154.013153 268.046844,154.013153 
z"/>
<path fill="#9AA690" opacity="1.000000" stroke="none" 
	d="
M141.545898,1.000000 
	C138.854660,1.192904 135.709320,1.385808 132.281982,1.289356 
	C135.030594,1.000000 138.061188,1.000000 141.545898,1.000000 
z"/>
<path fill="#66A03F" opacity="1.000000" stroke="none" 
	d="
M269.000000,137.562622 
	C269.000000,138.000000 268.539337,137.989258 268.310608,137.980621 
	C268.069672,135.928146 268.057434,133.884308 268.300415,131.406067 
	C268.555603,130.971664 269.000000,131.000000 269.000000,131.000000 
	C269.000000,133.041748 269.000000,135.083496 269.000000,137.562622 
z"/>
<path fill="#879E78" opacity="1.000000" stroke="none" 
	d="
M269.000000,130.571533 
	C269.000000,131.000000 268.555603,130.971664 268.333435,130.966827 
	C268.219513,129.150650 268.327728,127.339317 268.717957,125.263992 
	C269.000000,126.714355 269.000000,128.428711 269.000000,130.571533 
z"/>
<path fill="#699D48" opacity="1.000000" stroke="none" 
	d="
M268.030579,154.426910 
	C268.046844,154.013153 268.523376,154.002472 268.761688,154.001236 
	C269.000000,155.388916 269.000000,156.777832 268.778717,158.583038 
	C268.557434,158.999344 268.115234,158.981384 268.115234,158.981384 
	C268.081604,157.601151 268.047974,156.220901 268.030579,154.426910 
z"/>
<path fill="#879E78" opacity="1.000000" stroke="none" 
	d="
M268.082825,159.366211 
	C268.115234,158.981384 268.557434,158.999344 268.778717,158.999664 
	C269.000000,160.388885 269.000000,161.777786 269.000000,163.583344 
	C268.683472,162.583679 268.366943,161.167374 268.082825,159.366211 
z"/>
<path fill="#879E78" opacity="1.000000" stroke="none" 
	d="
M1.861618,126.964470 
	C1.884947,128.017532 1.908276,129.070602 1.682493,130.533356 
	C1.433381,130.943054 1.000000,131.000000 1.000000,131.000000 
	C1.000000,129.933258 1.000000,128.866501 1.214858,127.377747 
	C1.429716,126.955727 1.861618,126.964470 1.861618,126.964470 
z"/>
<path fill="#699D48" opacity="1.000000" stroke="none" 
	d="
M1.000000,131.375000 
	C1.000000,131.000000 1.433381,130.943054 1.650780,130.927460 
	C1.895753,131.685669 1.923328,132.459488 1.924905,133.619293 
	C1.898907,134.005280 1.449430,134.006531 1.224715,134.003265 
	C1.000000,133.250000 1.000000,132.500000 1.000000,131.375000 
z"/>
<path fill="#809C6E" opacity="1.000000" stroke="none" 
	d="
M1.000000,158.375000 
	C1.000000,158.000000 1.480947,157.995392 1.720374,158.000916 
	C1.956497,158.779053 1.953193,159.551636 1.687185,160.700348 
	C1.424481,161.076447 1.000000,161.000000 1.000000,161.000000 
	C1.000000,160.250000 1.000000,159.500000 1.000000,158.375000 
z"/>
<path fill="#ABB2A7" opacity="1.000000" stroke="none" 
	d="
M1.000000,161.375000 
	C1.000000,161.000000 1.424481,161.076447 1.639633,161.083954 
	C1.758990,161.948593 1.663195,162.805725 1.283700,163.831421 
	C1.000000,163.250000 1.000000,162.500000 1.000000,161.375000 
z"/>
<path fill="#B0B4AB" opacity="1.000000" stroke="none" 
	d="
M1.890151,126.628899 
	C1.861618,126.964470 1.429716,126.955727 1.214858,126.977859 
	C1.000000,126.250000 1.000000,125.500000 1.000000,124.375000 
	C1.306228,124.764442 1.612455,125.528885 1.890151,126.628899 
z"/>
<path fill="#241F21" opacity="1.000000" stroke="none" 
	d="
M104.788666,134.406769 
	C107.237167,134.383987 109.685669,134.361206 112.954582,134.497421 
	C128.074768,134.692490 142.374557,134.728577 156.674332,134.764648 
	C159.455963,134.730011 162.237595,134.695389 165.878143,134.666183 
	C168.785950,134.469864 170.834839,134.268112 172.883743,134.066376 
	C199.232910,135.009964 225.056229,131.714539 249.569504,123.898552 
	C249.569504,136.051346 249.609970,147.635178 249.543884,159.218384 
	C249.525040,162.522812 248.636261,165.909698 249.117401,169.112900 
	C250.472488,178.134613 246.279602,184.969620 241.023117,191.413834 
	C228.317001,206.990982 212.206909,217.621338 193.000687,223.373337 
	C180.115189,227.232361 166.942993,229.192856 153.421936,227.473724 
	C147.712677,226.747818 141.991074,225.879410 136.254807,225.690231 
	C132.449631,225.564743 128.603287,226.491348 124.784355,227.012848 
	C109.111206,229.153046 93.556587,228.489136 78.430756,223.839783 
	C56.101288,216.976166 37.441013,204.826920 24.324116,184.930649 
	C19.705610,177.925110 20.847338,170.106079 20.086611,162.522949 
	C19.971891,161.379410 20.141275,160.207382 20.163101,158.124863 
	C19.769793,148.112991 19.392622,139.024765 19.015453,129.936554 
	C19.110825,128.135864 19.206196,126.335182 19.350939,123.602318 
	C35.524490,128.697403 51.521080,132.752274 68.999367,133.207474 
	C78.875961,133.575836 87.922798,133.831528 97.297974,134.203110 
	C99.506958,134.335052 101.387611,134.351105 103.268257,134.367157 
	C103.268257,134.367157 103.707809,134.453751 104.094818,134.506699 
	C104.481827,134.559647 104.788666,134.406769 104.788666,134.406769 
z"/>
<path fill="#78805F" opacity="1.000000" stroke="none" 
	d="
M156.322327,134.641022 
	C142.374557,134.728577 128.074768,134.692490 113.411865,134.505066 
	C127.355934,134.408264 141.663132,134.462814 156.322327,134.641022 
z"/>
<path fill="#B2CD6B" opacity="1.000000" stroke="none" 
	d="
M96.969643,134.087219 
	C87.922798,133.831528 78.875961,133.575836 69.459190,133.155579 
	C79.412231,133.125504 89.735207,133.259995 100.035645,133.589523 
	C98.998619,133.885452 97.984131,133.986343 96.969643,134.087219 
z"/>
<path fill="#ABC46B" opacity="1.000000" stroke="none" 
	d="
M19.036007,130.409912 
	C19.392622,139.024765 19.769793,148.112991 20.064802,157.680328 
	C19.651947,151.063263 19.296650,143.968063 19.006344,136.870224 
	C18.924887,134.878586 19.034559,132.879120 19.036007,130.409912 
z"/>
<path fill="#78805F" opacity="1.000000" stroke="none" 
	d="
M172.495316,133.994354 
	C170.834839,134.268112 168.785950,134.469864 166.333771,134.625793 
	C167.989288,134.360779 170.048096,134.141571 172.495316,133.994354 
z"/>
<path fill="#78805F" opacity="1.000000" stroke="none" 
	d="
M97.297974,134.203125 
	C97.984131,133.986343 98.998619,133.885452 100.391830,133.758362 
	C101.332634,133.846954 101.894707,133.961761 102.862518,134.221863 
	C101.387611,134.351105 99.506958,134.335052 97.297974,134.203125 
z"/>
<path fill="#78805F" opacity="1.000000" stroke="none" 
	d="
M104.734528,134.308411 
	C104.788666,134.406769 104.481827,134.559647 104.318756,134.501312 
	C104.252083,134.187439 104.426987,134.109818 104.734528,134.308411 
z"/>
</svg>